<?xml version="1.0" encoding="UTF-8"?>
<!DOCTYPE svg PUBLIC "-//W3C//DTD SVG 1.1//EN" "http://www.w3.org/Graphics/SVG/1.1/DTD/svg11.dtd">
<svg xmlns="http://www.w3.org/2000/svg" version="1.1" width="512px" height="512px" style="shape-rendering:geometricPrecision; text-rendering:geometricPrecision; image-rendering:optimizeQuality; fill-rule:evenodd; clip-rule:evenodd" xmlns:xlink="http://www.w3.org/1999/xlink">
<g><path style="opacity:0.963" fill="#000000" d="M 511.5,197.5 C 511.5,204.5 511.5,211.5 511.5,218.5C 505.15,246.346 487.817,262.846 459.5,268C 419.829,268.167 380.162,268.667 340.5,269.5C 334.459,279.378 327.459,288.545 319.5,297C 346.167,297.333 372.833,297.667 399.5,298C 418.92,301.115 433.754,310.949 444,327.5C 458.312,358.278 452.812,384.778 427.5,407C 402.614,422.569 377.947,422.236 353.5,406C 338.163,393.491 330.163,377.325 329.5,357.5C 339.839,357.334 350.172,357.5 360.5,358C 363.175,375.84 373.508,385.674 391.5,387.5C 412.344,384.489 421.844,372.489 420,351.5C 416.314,339.149 408.148,331.649 395.5,329C 359.833,328.333 324.167,328.333 288.5,329C 253.613,361.056 218.28,392.556 182.5,423.5C 149.648,394.813 116.648,366.313 83.5,338C 59.1378,317.977 37.9712,295.144 20,269.5C 9.28015,252.495 2.44682,234.162 -0.5,214.5C -0.5,203.833 -0.5,193.167 -0.5,182.5C 2.8806,150.905 16.8806,125.072 41.5,105C 76.0055,83.1986 111.339,81.8653 147.5,101C 160.628,109.295 171.628,119.795 180.5,132.5C 208.862,93.5427 246.528,80.0427 293.5,92C 324.964,103.466 345.464,125.3 355,157.5C 362.144,184.121 362.31,210.788 355.5,237.5C 389.168,237.667 422.835,237.5 456.5,237C 479.31,228.876 485.81,213.709 476,191.5C 459.62,174.174 443.287,174.174 427,191.5C 423.954,196.639 422.12,202.139 421.5,208C 411.151,208.832 400.817,208.666 390.5,207.5C 395.467,166.697 418.467,146.864 459.5,148C 487.784,153.12 505.118,169.62 511.5,197.5 Z M 88.5,118.5 C 127.013,117.156 151.846,134.823 163,171.5C 164.191,176.767 164.691,182.101 164.5,187.5C 174.839,187.666 185.172,187.5 195.5,187C 198.403,149.765 218.07,127.098 254.5,119C 287.446,116.381 310.279,130.214 323,160.5C 331.781,186.242 331.614,211.909 322.5,237.5C 284.833,237.5 247.167,237.5 209.5,237.5C 209.5,247.833 209.5,258.167 209.5,268.5C 240.502,268.333 271.502,268.5 302.5,269C 294.568,278.935 285.901,288.268 276.5,297C 244.168,297.5 211.835,297.667 179.5,297.5C 179.5,307.833 179.5,318.167 179.5,328.5C 200.503,328.333 221.503,328.5 242.5,329C 223.833,345.667 205.167,362.333 186.5,379C 184.945,380.289 183.279,380.956 181.5,381C 146.37,350.873 111.537,320.373 77,289.5C 68.9617,281.13 61.295,272.464 54,263.5C 28.5206,230.756 23.5206,195.09 39,156.5C 49.3312,135.654 65.8312,122.988 88.5,118.5 Z"/></g>
</svg>
