<?xml version="1.0" standalone="no"?>
<!DOCTYPE svg PUBLIC "-//W3C//DTD SVG 20010904//EN"
 "http://www.w3.org/TR/2001/REC-SVG-20010904/DTD/svg10.dtd">
<svg version="1.0" xmlns="http://www.w3.org/2000/svg"
 width="512.000000pt" height="512.000000pt" viewBox="0 0 512.000000 512.000000"
 preserveAspectRatio="xMidYMid meet">

<g transform="translate(0.000000,512.000000) scale(0.100000,-0.100000)"
fill="#000000" stroke="none">
<path d="M2370 5054 c-19 -2 -78 -9 -130 -15 -788 -90 -1517 -582 -1919 -1296
-143 -254 -246 -559 -298 -885 -14 -88 -17 -219 -20 -877 -5 -866 -6 -853 64
-994 26 -51 58 -94 112 -147 135 -134 260 -180 488 -180 l133 0 0 -33 c0 -55
37 -184 72 -250 42 -81 164 -203 245 -245 133 -70 286 -88 427 -52 113 29 190
73 276 160 87 86 131 163 160 276 19 74 20 114 20 944 0 830 -1 870 -20 944
-29 113 -73 190 -160 276 -86 87 -163 131 -276 160 -141 36 -294 18 -427 -52
-81 -42 -203 -164 -245 -245 -35 -66 -72 -195 -72 -250 l0 -33 -127 0 c-74 0
-157 -7 -198 -15 -38 -8 -71 -15 -72 -15 -2 0 -3 83 -3 184 0 314 28 507 111
760 214 653 723 1162 1378 1376 449 147 894 147 1345 -1 488 -160 893 -481
1171 -929 162 -262 273 -595 305 -919 9 -88 15 -471 7 -471 -1 0 -34 7 -72 15
-41 8 -124 15 -197 15 l-128 0 0 33 c0 55 -37 184 -72 250 -42 81 -164 203
-245 245 -133 70 -286 88 -427 52 -113 -29 -190 -73 -276 -160 -87 -86 -131
-163 -160 -276 -19 -74 -20 -114 -20 -944 0 -830 1 -870 20 -944 29 -113 73
-190 160 -276 86 -87 163 -131 276 -160 141 -36 294 -18 427 52 81 42 203 164
245 245 35 66 72 195 72 250 l0 33 133 0 c229 0 354 46 487 180 87 86 131 163
160 276 19 73 20 113 20 788 0 425 -4 757 -11 826 -56 603 -313 1151 -740
1579 -399 398 -879 639 -1449 726 -100 15 -472 28 -550 19z m-860 -2628 c21
-13 48 -42 61 -63 l24 -38 0 -865 0 -865 -24 -38 c-13 -21 -42 -50 -64 -65
-34 -23 -52 -27 -107 -27 -55 0 -73 4 -107 27 -22 15 -51 44 -64 65 l-24 38
-3 843 c-2 578 1 856 8 883 13 48 76 114 122 128 53 16 135 6 178 -23z m2320
0 c21 -13 48 -42 61 -63 l24 -38 0 -865 0 -865 -24 -38 c-13 -21 -42 -50 -64
-65 -34 -23 -52 -27 -107 -27 -55 0 -73 4 -107 27 -22 15 -51 44 -64 65 l-24
38 -3 843 c-2 578 1 856 8 883 13 48 76 114 122 128 53 16 135 6 178 -23z
m-3030 -967 l0 -401 -132 4 c-119 3 -137 5 -171 27 -21 13 -50 42 -65 64 l-27
40 -3 243 c-4 278 1 307 58 364 50 50 79 58 223 59 l117 1 0 -401z m3823 372
c21 -13 50 -42 65 -64 l27 -41 0 -266 0 -266 -27 -41 c-15 -22 -44 -51 -65
-64 -34 -22 -52 -24 -170 -27 l-133 -4 0 402 0 402 133 -4 c118 -3 136 -5 170
-27z"/>
</g>
</svg>
