<?xml version="1.0" standalone="no"?>
<!DOCTYPE svg PUBLIC "-//W3C//DTD SVG 20010904//EN"
 "http://www.w3.org/TR/2001/REC-SVG-20010904/DTD/svg10.dtd">
<svg version="1.0" xmlns="http://www.w3.org/2000/svg"
 width="512.000000pt" height="512.000000pt" viewBox="0 0 512.000000 512.000000"
 preserveAspectRatio="xMidYMid meet">

<g transform="translate(0.000000,512.000000) scale(0.100000,-0.100000)"
fill="#000000" stroke="none">
<path d="M2373 5096 c-151 -29 -274 -79 -402 -163 -72 -47 -223 -192 -949
-917 -637 -635 -876 -880 -912 -934 -28 -41 -62 -109 -77 -155 l-28 -82 -3
-1105 c-2 -789 0 -1128 8 -1185 36 -248 193 -436 435 -522 l80 -28 2030 0
2030 0 75 23 c244 76 413 274 450 527 8 57 10 396 8 1185 l-3 1105 -28 82
c-15 46 -49 114 -77 155 -36 54 -275 299 -912 934 -734 732 -876 870 -951 918
-101 67 -219 119 -332 147 -105 27 -339 34 -442 15z m341 -426 c42 -11 109
-36 149 -56 67 -35 135 -100 930 -893 497 -495 868 -873 880 -896 l22 -40 0
-1100 0 -1100 -22 -42 c-31 -57 -87 -100 -147 -113 -34 -7 -197 -10 -476 -8
l-425 3 -6 510 c-6 525 -6 527 -51 665 -92 284 -337 545 -611 650 -148 58
-236 73 -402 73 -167 -1 -269 -21 -417 -82 -262 -109 -497 -367 -586 -641 -45
-138 -45 -140 -51 -665 l-6 -510 -425 -3 c-279 -2 -442 1 -476 8 -60 13 -116
56 -147 113 l-22 42 -3 1070 c-2 777 0 1085 8 1125 l12 55 871 871 c811 810
877 873 944 908 146 75 307 95 457 56z m44 -2796 c193 -64 333 -201 411 -402
l26 -67 3 -492 3 -493 -641 0 -640 0 0 468 c0 516 1 524 64 657 84 179 269
319 468 355 85 15 219 4 306 -26z"/>
</g>
</svg>
