<?xml version="1.0" standalone="no"?>
<!DOCTYPE svg PUBLIC "-//W3C//DTD SVG 20010904//EN"
 "http://www.w3.org/TR/2001/REC-SVG-20010904/DTD/svg10.dtd">
<svg version="1.0" xmlns="http://www.w3.org/2000/svg"
 width="512.000000pt" height="512.000000pt" viewBox="0 0 512.000000 512.000000"
 preserveAspectRatio="xMidYMid meet">

<g transform="translate(0.000000,512.000000) scale(0.100000,-0.100000)"
fill="#000000" stroke="none">
<path d="M2371 5110 c-1108 -92 -2012 -850 -2286 -1916 -100 -386 -106 -801
-19 -1194 104 -469 342 -899 688 -1246 406 -405 909 -652 1486 -730 183 -25
493 -23 675 5 570 85 1051 326 1451 725 589 590 853 1416 713 2235 -188 1105
-1079 1962 -2189 2105 -150 20 -388 27 -519 16z m-469 -632 c-174 -232 -309
-455 -434 -715 l-68 -143 -340 0 c-236 0 -340 3 -340 11 0 6 21 43 46 82 212
328 507 590 859 762 117 58 363 150 373 140 2 -2 -41 -64 -96 -137z m1393 85
c119 -42 325 -147 442 -226 247 -165 452 -371 607 -610 31 -47 56 -90 56 -96
0 -8 -100 -11 -340 -11 l-340 0 -68 143 c-124 258 -274 505 -443 729 -49 65
-89 120 -89 122 0 6 81 -18 175 -51z m-684 -10 c121 -127 280 -332 402 -519
78 -119 237 -393 237 -408 0 -3 -310 -6 -690 -6 -379 0 -690 3 -690 6 0 3 34
67 76 142 158 284 378 589 563 785 25 26 48 47 51 47 3 0 26 -21 51 -47z
m-1351 -1357 c0 -3 -9 -42 -20 -88 -44 -187 -55 -293 -55 -548 0 -255 11 -361
55 -548 11 -46 20 -85 20 -88 0 -2 -166 -4 -369 -4 l-370 0 -15 53 c-55 191
-79 364 -79 587 0 223 24 396 79 587 l15 53 370 0 c203 0 369 -2 369 -4z
m2197 -126 c84 -334 84 -686 0 -1020 l-32 -125 -865 0 -865 0 -31 125 c-83
326 -85 667 -7 995 14 61 29 120 34 133 l9 22 862 -2 863 -3 32 -125z m1152
93 c52 -194 67 -283 81 -465 7 -95 7 -181 0 -275 -14 -183 -29 -272 -81 -465
l-10 -38 -369 0 c-204 0 -370 3 -370 6 0 3 7 32 15 63 45 176 59 310 59 571 0
261 -14 395 -59 571 -8 31 -15 60 -15 63 0 3 166 6 370 6 l369 0 10 -37z
m-3141 -1805 c122 -255 262 -487 434 -716 55 -73 98 -135 96 -137 -8 -8 -236
74 -330 118 -361 168 -662 427 -884 758 -35 53 -64 101 -64 107 0 9 90 12 340
12 l340 0 68 -142z m1782 136 c0 -15 -159 -288 -234 -403 -125 -192 -353 -482
-435 -555 -21 -19 -21 -19 -47 5 -90 83 -303 356 -430 550 -75 115 -234 388
-234 403 0 3 311 6 690 6 380 0 690 -3 690 -6z m1150 -5 c0 -6 -21 -43 -46
-82 -212 -327 -511 -593 -859 -763 -116 -56 -363 -149 -373 -139 -2 2 37 57
86 122 170 225 320 472 444 731 l68 142 340 0 c236 0 340 -3 340 -11z"/>
</g>
</svg>
