<?xml version="1.0" standalone="no"?>
<!DOCTYPE svg PUBLIC "-//W3C//DTD SVG 20010904//EN"
 "http://www.w3.org/TR/2001/REC-SVG-20010904/DTD/svg10.dtd">
<svg version="1.0" xmlns="http://www.w3.org/2000/svg"
 width="512.000000pt" height="512.000000pt" viewBox="0 0 512.000000 512.000000"
 preserveAspectRatio="xMidYMid meet">

<g transform="translate(0.000000,512.000000) scale(0.100000,-0.100000)"
fill="#000000" stroke="none">
<path d="M162 5110 c-49 -11 -106 -55 -133 -103 l-24 -42 -3 -1950 c-2 -1270
1 -1983 7 -2045 15 -132 44 -238 100 -355 138 -290 375 -483 711 -578 l75 -22
2020 -3 c1420 -2 2031 0 2057 8 167 48 193 288 40 377 l-47 28 -2015 5 -2015
5 -65 23 c-207 74 -363 238 -426 447 -17 57 -19 168 -24 2065 -5 1876 -6 2007
-22 2037 -25 45 -83 89 -134 102 -48 12 -55 12 -102 1z"/>
<path d="M4060 4249 c-56 -25 -77 -44 -101 -91 -26 -51 -33 -107 -19 -158 10
-36 35 -68 146 -180 74 -75 134 -141 134 -146 0 -5 -174 -184 -387 -396 -414
-413 -432 -427 -526 -428 -68 0 -108 20 -190 95 -79 72 -192 134 -292 160 -78
21 -242 21 -320 0 -33 -8 -94 -32 -135 -51 -72 -35 -101 -62 -668 -628 -329
-327 -602 -608 -613 -628 -12 -23 -19 -57 -19 -91 0 -109 78 -196 184 -205
106 -9 81 -29 706 593 316 315 590 580 607 589 85 43 179 28 252 -38 86 -79
137 -115 212 -151 79 -37 198 -65 280 -65 83 0 199 29 289 72 84 40 91 46 500
454 229 228 420 414 426 414 5 0 63 -54 129 -121 134 -135 175 -161 247 -161
72 1 111 18 156 66 61 66 64 94 60 511 l-3 360 -26 55 c-33 70 -89 126 -159
159 l-55 26 -385 3 c-370 2 -387 1 -430 -19z"/>
</g>
</svg>
