<?xml version="1.0" encoding="UTF-8"?>
<!DOCTYPE svg PUBLIC "-//W3C//DTD SVG 1.1//EN" "http://www.w3.org/Graphics/SVG/1.1/DTD/svg11.dtd">
<svg xmlns="http://www.w3.org/2000/svg" version="1.1" width="512px" height="512px" style="shape-rendering:geometricPrecision; text-rendering:geometricPrecision; image-rendering:optimizeQuality; fill-rule:evenodd; clip-rule:evenodd" xmlns:xlink="http://www.w3.org/1999/xlink">
<g><path style="opacity:0.985" fill="#844dc2" d="M 511.5,196.5 C 511.5,204.167 511.5,211.833 511.5,219.5C 504.682,246.772 487.349,262.939 459.5,268C 419.829,268.167 380.162,268.667 340.5,269.5C 334.604,279.063 327.938,288.063 320.5,296.5C 346.827,297.333 373.16,297.833 399.5,298C 418.92,301.115 433.754,310.949 444,327.5C 458.312,358.278 452.812,384.778 427.5,407C 402.651,422.573 377.985,422.24 353.5,406C 338.165,393.495 330.165,377.329 329.5,357.5C 339.855,357.168 350.188,357.501 360.5,358.5C 365.802,381.966 380.135,390.8 403.5,385C 421.03,374.405 425.197,359.905 416,341.5C 411.001,334.921 404.501,330.755 396.5,329C 360.5,328.333 324.5,328.333 288.5,329C 253.613,361.056 218.28,392.556 182.5,423.5C 147.207,392.194 111.54,361.361 75.5,331C 57.2258,315.062 40.7258,297.562 26,278.5C 11.8949,259.297 3.06161,237.964 -0.5,214.5C -0.5,203.5 -0.5,192.5 -0.5,181.5C 3.3269,147.337 19.3269,120.504 47.5,101C 81.6682,82.7345 115.668,83.0678 149.5,102C 161.646,110.312 171.979,120.479 180.5,132.5C 210.886,91.5392 250.553,78.7059 299.5,94C 329.967,108.147 349.133,131.647 357,164.5C 362.041,188.966 361.541,213.299 355.5,237.5C 389.168,237.667 422.835,237.5 456.5,237C 475.026,231.791 482.86,219.625 480,200.5C 473.948,184.559 462.448,177.392 445.5,179C 431.346,183.494 423.346,193.161 421.5,208C 411.172,208.5 400.839,208.666 390.5,208.5C 392.644,175.195 409.977,155.028 442.5,148C 478.495,145.976 501.495,162.142 511.5,196.5 Z M 88.5,118.5 C 126.433,117.206 151.267,134.54 163,170.5C 164.217,176.101 164.717,181.768 164.5,187.5C 174.855,187.832 185.188,187.499 195.5,186.5C 198.669,149.502 218.336,127.002 254.5,119C 287.441,116.378 310.274,130.212 323,160.5C 331.78,186.248 331.614,211.914 322.5,237.5C 284.833,237.5 247.167,237.5 209.5,237.5C 209.5,247.833 209.5,258.167 209.5,268.5C 240.502,268.333 271.502,268.5 302.5,269C 294.568,278.935 285.901,288.268 276.5,297C 244.168,297.5 211.835,297.667 179.5,297.5C 179.5,307.833 179.5,318.167 179.5,328.5C 200.503,328.333 221.503,328.5 242.5,329C 223.833,345.667 205.167,362.333 186.5,379C 184.945,380.289 183.279,380.956 181.5,381C 147.037,351.539 112.871,321.706 79,291.5C 68.9214,281.426 59.5881,270.759 51,259.5C 28.6266,228.219 24.2932,194.552 38,158.5C 47.8744,136.172 64.7077,122.839 88.5,118.5 Z"/></g>
</svg>
