<?xml version="1.0" standalone="no"?>
<!DOCTYPE svg PUBLIC "-//W3C//DTD SVG 20010904//EN" "http://www.w3.org/TR/2001/REC-SVG-20010904/DTD/svg10.dtd">
<svg
  version="1.0"
  xmlns="http://www.w3.org/2000/svg"
  width="1080.000000pt"
  height="1080.000000pt"
  viewBox="0 0 1080.000000 1080.000000"
  preserveAspectRatio="xMidYMid meet"
>
  <g
    transform="translate(0.000000,1080.000000) scale(0.100000,-0.100000)"
    fill="#ffffff"
    stroke="none"
  >
    <path
      d="M3680 9640 c-97 -11 -242 -42 -350 -75 -47 -14 -105 -32 -130 -39
-56 -16 -247 -106 -315 -148 -106 -66 -133 -85 -245 -174 -236 -188 -391 -377
-545 -669 -85 -159 -176 -446 -202 -634 -32 -231 -15 -562 38 -761 58 -216
148 -431 246 -590 244 -393 651 -718 1067 -850 206 -66 226 -70 376 -85 456
-46 815 10 1185 184 314 148 641 442 826 741 132 215 223 456 285 760 28 134
25 526 -5 677 -58 299 -208 635 -390 873 -140 184 -336 362 -554 501 -92 58
-307 164 -357 174 -19 4 -47 13 -61 21 -32 16 -238 69 -329 84 -85 14 -444 21
-540 10z"
    />
    <path
      d="M8130 6030 c-140 -8 -252 -24 -345 -50 -38 -10 -97 -25 -130 -33 -83
-20 -202 -65 -317 -120 -54 -26 -100 -47 -103 -47 -3 0 -24 -12 -48 -27 -23
-15 -67 -42 -97 -61 -108 -68 -136 -88 -230 -162 -239 -188 -454 -457 -597
-745 -145 -293 -207 -499 -238 -787 -19 -186 -19 -305 0 -499 23 -226 63 -391
147 -604 56 -143 72 -177 140 -295 188 -323 400 -548 731 -774 54 -37 106 -70
115 -74 10 -3 44 -21 77 -40 114 -65 419 -182 474 -182 10 0 37 -7 61 -15 154
-54 618 -74 861 -36 257 40 549 133 709 224 25 15 60 33 78 42 55 26 231 143
312 207 185 148 397 386 517 583 116 191 182 325 219 449 56 188 105 394 114
479 12 117 12 400 0 542 -12 146 -91 456 -151 590 -39 89 -112 233 -144 285
-19 30 -42 69 -51 85 -9 17 -36 55 -59 85 -23 30 -46 62 -51 71 -5 9 -53 68
-106 130 -158 186 -403 387 -593 488 -22 12 -47 26 -55 31 -81 53 -386 174
-469 186 -25 4 -64 13 -86 21 -70 25 -431 66 -540 61 -16 -1 -82 -4 -145 -8z
m236 -996 c30 -8 75 -30 101 -48 38 -26 53 -45 77 -102 l30 -69 4 -380 c2
-216 8 -385 13 -391 6 -8 92 -13 262 -17 212 -4 260 -8 305 -24 74 -26 115
-63 151 -134 70 -140 22 -292 -117 -376 l-47 -28 -460 0 -460 0 -56 27 c-70
33 -113 84 -140 168 -22 64 -22 69 -15 595 8 639 10 660 100 731 75 60 158 76
252 48z"
    />
    <path
      d="M3075 4733 c-439 -39 -589 -66 -835 -153 -47 -17 -105 -37 -130 -45
-85 -27 -385 -186 -512 -271 -174 -117 -222 -155 -373 -297 -410 -384 -702
-894 -830 -1447 -31 -133 -65 -401 -65 -511 0 -98 25 -242 52 -297 54 -113
161 -202 283 -236 68 -19 134 -20 2770 -27 1485 -4 2792 -10 2905 -14 244 -7
256 -4 191 55 -25 22 -47 40 -50 40 -13 1 -248 226 -345 331 -128 139 -271
331 -338 454 -109 199 -187 375 -241 540 -46 140 -84 286 -92 350 -3 28 -14
97 -23 155 -40 260 -10 781 59 1020 42 146 46 185 24 210 -44 49 -318 102
-672 131 -209 16 -330 18 -988 17 -412 -1 -768 -3 -790 -5z"
    />
  </g>
</svg>
