<?xml version="1.0" standalone="no"?>
<!DOCTYPE svg PUBLIC "-//W3C//DTD SVG 20010904//EN" "http://www.w3.org/TR/2001/REC-SVG-20010904/DTD/svg10.dtd">
<svg
  version="1.0"
  xmlns="http://www.w3.org/2000/svg"
  width="512.000000pt"
  height="512.000000pt"
  viewBox="0 0 512.000000 512.000000"
  preserveAspectRatio="xMidYMid meet"
>
  <g
    transform="translate(0.000000,512.000000) scale(0.100000,-0.100000)"
    fill="#46C9AF"
    stroke="none"
  >
    <path
      d="M2270 4679 c-44 -18 -90 -59 -113 -102 l-22 -42 0 -1975 0 -1975 25
-45 c14 -24 44 -58 67 -74 83 -58 60 -62 1023 179 475 119 879 223 898 232 50
24 99 88 111 145 15 68 15 3008 0 3076 -12 57 -61 121 -111 145 -59 28 -1754
447 -1805 446 -27 0 -59 -5 -73 -10z m808 -1888 c85 -44 122 -112 122 -226 0
-114 -37 -182 -122 -226 -69 -35 -179 -20 -236 34 -50 46 -67 95 -67 192 0 97
17 146 67 192 57 54 167 69 236 34z"
    />
    <path
      d="M1230 4261 c-72 -22 -119 -63 -145 -123 -13 -33 -15 -210 -15 -1578
0 -1368 2 -1545 15 -1578 20 -47 50 -78 100 -105 38 -21 54 -22 388 -25 l347
-3 0 216 0 215 -215 0 -215 0 0 1280 0 1280 215 0 215 0 0 215 0 215 -332 -1
c-183 0 -344 -4 -358 -8z"
    />
  </g>
</svg>
