<?xml version="1.0" standalone="no"?>
<!DOCTYPE svg PUBLIC "-//W3C//DTD SVG 20010904//EN"
 "http://www.w3.org/TR/2001/REC-SVG-20010904/DTD/svg10.dtd">
<svg version="1.0" xmlns="http://www.w3.org/2000/svg"
 width="512.000000pt" height="512.000000pt" viewBox="0 0 512.000000 512.000000"
 preserveAspectRatio="xMidYMid meet">

<g transform="translate(0.000000,512.000000) scale(0.100000,-0.100000)"
fill="#000000" stroke="none">
<path d="M4290 5114 c-719 -43 -1392 -303 -1930 -747 -117 -97 -327 -304 -417
-412 -104 -123 -106 -125 -167 -125 -184 0 -491 -69 -731 -165 -436 -173 -729
-414 -940 -770 -70 -118 -98 -213 -99 -330 0 -112 15 -177 66 -285 54 -114
168 -229 278 -284 137 -67 145 -68 575 -76 433 -8 438 -8 580 -79 150 -75 261
-186 336 -336 71 -142 71 -147 79 -580 8 -430 9 -438 76 -575 55 -110 170
-224 284 -278 110 -52 174 -66 290 -65 124 2 205 27 337 105 235 140 456 362
599 602 100 168 207 431 260 640 31 123 64 339 64 422 l0 61 108 90 c733 619
1167 1531 1175 2473 1 142 -2 187 -17 240 -59 214 -243 399 -451 454 -62 17
-240 27 -355 20z m282 -440 c62 -31 99 -76 119 -146 9 -34 -5 -281 -26 -446
-87 -661 -349 -1187 -835 -1672 -288 -288 -642 -553 -1055 -790 -163 -93 -426
-230 -442 -230 -5 0 -17 33 -26 73 -96 404 -442 749 -849 845 -38 9 -68 20
-68 25 0 4 31 70 69 145 342 672 787 1253 1231 1607 439 349 943 545 1530 595
258 22 299 21 352 -6z m-3094 -1322 c-1 -4 -41 -68 -87 -142 -120 -192 -283
-488 -382 -695 l-84 -177 -170 4 c-160 3 -173 5 -215 28 -53 30 -104 101 -113
158 -10 57 12 116 79 218 125 189 336 366 565 472 192 90 421 165 407 134z
m1877 -1909 c-20 -109 -129 -376 -207 -508 -111 -188 -279 -359 -458 -466 -62
-37 -79 -42 -130 -42 -102 0 -185 68 -209 173 -6 25 -11 108 -11 185 l0 140
238 116 c247 122 476 249 660 368 59 38 111 70 116 70 4 1 5 -16 1 -36z"/>
<path d="M3245 3833 c-126 -18 -234 -73 -319 -163 -102 -108 -146 -219 -146
-368 0 -290 235 -522 530 -522 141 0 254 46 360 146 110 104 164 231 163 384
0 98 -12 148 -56 240 -59 121 -198 233 -332 268 -49 13 -160 21 -200 15z"/>
<path d="M716 1474 c-88 -19 -175 -59 -249 -114 -92 -70 -246 -320 -342 -560
-153 -378 -155 -542 -11 -686 115 -115 236 -135 441 -75 232 68 473 179 666
307 105 70 161 134 209 239 218 477 -201 999 -714 889z m188 -415 c175 -44
218 -283 68 -380 -123 -79 -501 -244 -518 -226 -25 25 190 491 256 557 52 52
117 69 194 49z"/>
</g>
</svg>
