<?xml version="1.0" standalone="no"?>
<!DOCTYPE svg PUBLIC "-//W3C//DTD SVG 20010904//EN"
 "http://www.w3.org/TR/2001/REC-SVG-20010904/DTD/svg10.dtd">
<svg version="1.0" xmlns="http://www.w3.org/2000/svg"
 width="512.000000pt" height="512.000000pt" viewBox="0 0 512.000000 512.000000"
 preserveAspectRatio="xMidYMid meet">

<g transform="translate(0.000000,512.000000) scale(0.100000,-0.100000)"
fill="#000000" stroke="none">
<path d="M1495 5114 c-148 -20 -258 -59 -363 -128 -136 -88 -254 -235 -307
-380 l-27 -75 -328 -3 -328 -3 -44 -30 c-124 -88 -124 -262 0 -350 l44 -30
328 -3 328 -3 27 -75 c48 -133 171 -290 289 -370 136 -93 280 -136 451 -136
148 0 237 21 368 89 127 65 263 199 327 323 24 47 49 103 55 125 l12 40 1319
5 c746 3 1328 9 1339 14 80 36 129 109 129 196 1 70 -33 133 -92 175 l-44 30
-1325 5 -1326 5 -12 40 c-50 169 -214 362 -382 448 -51 26 -125 56 -165 66
-74 19 -219 32 -273 25z m133 -424 c119 -22 221 -99 274 -208 30 -61 33 -74
33 -162 0 -88 -3 -101 -33 -162 -141 -287 -544 -281 -680 10 -23 49 -27 70
-27 152 0 82 4 103 27 152 51 109 158 195 268 217 62 12 80 12 138 1z"/>
<path d="M3452 3349 c-126 -16 -262 -70 -363 -144 -120 -89 -247 -262 -284
-390 l-12 -40 -1326 -5 -1325 -5 -44 -30 c-124 -88 -124 -262 0 -350 l44 -30
1325 -5 1326 -5 12 -40 c37 -128 164 -301 284 -389 104 -76 241 -129 379 -146
349 -44 707 175 827 504 l28 76 307 0 c203 0 319 4 341 11 166 56 195 272 51
374 l-44 30 -328 3 -328 3 -27 75 c-98 268 -353 467 -645 503 -93 12 -107 12
-198 0z m244 -440 c76 -29 156 -105 196 -187 30 -61 33 -74 33 -162 0 -88 -3
-101 -33 -162 -36 -74 -105 -143 -175 -177 -184 -89 -407 -10 -499 177 -30 61
-33 74 -33 162 0 88 3 101 33 162 51 104 154 185 266 208 56 12 148 3 212 -21z"/>
<path d="M1495 1594 c-148 -20 -258 -59 -363 -128 -136 -88 -254 -235 -307
-380 l-27 -75 -328 -3 -328 -3 -44 -30 c-124 -88 -124 -262 0 -350 l44 -30
328 -3 328 -3 27 -75 c48 -133 171 -290 289 -370 136 -93 280 -136 451 -136
148 0 237 21 368 89 127 65 263 199 327 323 24 47 49 103 55 125 l12 40 1319
5 c746 3 1328 9 1339 14 80 36 129 109 129 196 1 70 -33 133 -92 175 l-44 30
-1325 5 -1326 5 -12 40 c-50 169 -214 362 -382 448 -51 26 -125 56 -165 66
-74 19 -219 32 -273 25z m133 -424 c119 -22 221 -99 274 -208 30 -61 33 -74
33 -162 0 -82 -4 -103 -27 -152 -53 -114 -160 -195 -286 -218 -161 -29 -327
61 -400 218 -23 49 -27 70 -27 152 0 82 4 103 27 152 51 109 158 195 268 217
62 12 80 12 138 1z"/>
</g>
</svg>
