<?xml version="1.0" standalone="no"?>
<!DOCTYPE svg PUBLIC "-//W3C//DTD SVG 20010904//EN" "http://www.w3.org/TR/2001/REC-SVG-20010904/DTD/svg10.dtd">
<svg
  version="1.0"
  xmlns="http://www.w3.org/2000/svg"
  width="445.000000pt"
  height="445.000000pt"
  viewBox="0 0 445.000000 445.000000"
  preserveAspectRatio="xMidYMid meet"
>
  <g
    transform="translate(0.000000,445.000000) scale(0.100000,-0.100000)"
    fill="#8561C5"
    stroke="none"
  >
    <path
      d="M1610 3346 c-36 -12 -81 -31 -100 -41 -76 -39 -527 -343 -533 -360
-9 -21 -9 -1418 -1 -1439 5 -13 24 -16 99 -16 l92 0 99 -92 c430 -402 546
-500 615 -523 141 -47 312 34 365 172 9 23 23 43 31 43 8 0 49 -30 91 -66 98
-86 146 -108 237 -107 113 0 189 43 253 141 20 32 37 59 39 61 1 2 33 -9 70
-25 84 -36 154 -37 231 -4 66 28 144 111 166 176 32 93 16 206 -39 278 -30 39
-336 333 -585 561 -96 88 -197 181 -225 206 -92 87 -103 93 -131 78 -13 -7
-46 -31 -73 -53 -265 -222 -353 -272 -490 -283 -202 -15 -377 84 -467 265
l-39 77 0 130 c0 130 0 130 37 206 49 99 104 154 402 392 132 106 241 197 243
203 7 21 -108 44 -218 43 -81 0 -118 -5 -169 -23z"
    />
    <path
      d="M2470 3346 c-116 -40 -169 -76 -450 -307 -74 -61 -187 -152 -250
-204 -150 -121 -183 -154 -209 -207 -49 -101 -13 -228 84 -297 43 -32 58 -36
120 -39 61 -3 79 0 121 21 27 14 196 140 375 280 179 139 339 259 357 265 36
12 88 1 122 -26 30 -24 38 -95 16 -136 -9 -17 -44 -51 -76 -76 -33 -24 -61
-49 -64 -56 -2 -6 71 -80 162 -165 92 -85 190 -176 218 -204 48 -47 313 -299
435 -413 31 -28 59 -49 62 -45 10 9 8 1185 -1 1199 -9 13 -87 66 -287 193 -88
57 -187 122 -221 145 -33 23 -97 54 -142 69 -110 37 -273 38 -372 3z"
    />
    <path
      d="M366 2953 c-144 -3 -173 -6 -189 -21 -48 -43 -47 -28 -47 -760 0
-751 0 -755 57 -823 47 -56 96 -69 257 -69 132 0 146 2 193 25 59 30 97 79
112 145 7 29 11 311 11 771 l0 726 -61 7 c-34 3 -85 5 -113 4 -28 -1 -127 -4
-220 -5z m134 -1268 c38 -20 50 -43 50 -100 0 -40 -5 -52 -31 -76 -42 -39
-113 -41 -153 -4 -22 20 -26 32 -26 80 0 49 4 60 29 86 34 33 83 39 131 14z"
    />
    <path
      d="M3727 2943 c-17 -4 -17 -43 -15 -756 3 -712 4 -754 22 -787 24 -46
64 -88 101 -108 39 -21 280 -30 343 -12 26 6 62 28 87 51 78 72 75 43 75 821
0 737 1 728 -50 773 -21 19 -37 20 -284 22 -143 1 -269 -1 -279 -4z m374
-1281 c27 -24 32 -36 33 -76 1 -43 -3 -51 -36 -82 -42 -38 -80 -44 -128 -19
-38 20 -50 43 -50 99 0 33 6 52 26 75 22 27 32 31 75 31 39 0 55 -5 80 -28z"
    />
  </g>
</svg>
